<svg width="1024" height="1024" viewBox="0 0 1024 1024" fill="none" xmlns="http://www.w3.org/2000/svg">
  <defs>
    <linearGradient id="mark" x1="334" y1="220" x2="650" y2="782" gradientUnits="userSpaceOnUse">
      <stop stop-color="#FFFFFF"/>
      <stop offset="0.22" stop-color="#D8F7F4"/>
      <stop offset="0.58" stop-color="#7EDCF9"/>
      <stop offset="1" stop-color="#6A8BFF"/>
    </linearGradient>
    <linearGradient id="markShade" x1="392" y1="314" x2="672" y2="708" gradientUnits="userSpaceOnUse">
      <stop stop-color="#C1FFF6" stop-opacity="0.42"/>
      <stop offset="1" stop-color="#6D92FF" stop-opacity="0.12"/>
    </linearGradient>
    <linearGradient id="orbit" x1="300" y1="312" x2="796" y2="786" gradientUnits="userSpaceOnUse">
      <stop stop-color="#8FD6CC"/>
      <stop offset="0.52" stop-color="#5D9FD5"/>
      <stop offset="1" stop-color="#6A7AC8"/>
    </linearGradient>
    <linearGradient id="facet" x1="296" y1="380" x2="660" y2="676" gradientUnits="userSpaceOnUse">
      <stop stop-color="#9CB4CA" stop-opacity="0.46"/>
      <stop offset="1" stop-color="#5A79A5" stop-opacity="0.18"/>
    </linearGradient>
    <filter id="shadow" x="204" y="176" width="616" height="706" filterUnits="userSpaceOnUse" color-interpolation-filters="sRGB">
      <feFlood flood-opacity="0" result="BackgroundImageFix"/>
      <feBlend mode="normal" in="SourceGraphic" in2="BackgroundImageFix" result="shape"/>
      <feGaussianBlur stdDeviation="26" result="effect1_foregroundBlur"/>
    </filter>
    <filter id="glow" x="230" y="182" width="564" height="658" filterUnits="userSpaceOnUse" color-interpolation-filters="sRGB">
      <feFlood flood-opacity="0" result="BackgroundImageFix"/>
      <feBlend mode="normal" in="SourceGraphic" in2="BackgroundImageFix" result="shape"/>
      <feGaussianBlur stdDeviation="10" result="effect1_foregroundBlur"/>
    </filter>
  </defs>

  <g filter="url(#shadow)" opacity="0.24">
    <path d="M340 296H684C726.526 296 761 330.474 761 373C761 410.396 734.129 442.388 697.338 448.826L590 467.611V690C590 734.183 554.183 770 510 770C465.817 770 430 734.183 430 690V450H340C297.474 450 263 415.526 263 373C263 330.474 297.474 296 340 296Z" fill="#7ABFFF"/>
  </g>

  <path d="M500 308L664 472L500 636L336 472L500 308Z" fill="url(#facet)"/>

  <path d="M308 516C308 427.494 348.594 347.622 412.125 295.044" stroke="url(#orbit)" stroke-opacity="0.74" stroke-width="18" stroke-linecap="round"/>
  <path d="M700 302C770.792 365.775 811 455.35 811 551.77C811 660.249 760.14 756.855 676 818" stroke="url(#orbit)" stroke-opacity="0.74" stroke-width="18" stroke-linecap="round"/>

  <g filter="url(#glow)">
    <rect x="276" y="220" width="472" height="132" rx="66" fill="url(#mark)"/>
    <rect x="430" y="304" width="160" height="484" rx="80" fill="url(#mark)"/>
    <path d="M584 224L748 388L506 630L342 466L584 224Z" fill="url(#markShade)"/>
    <path d="M320 258H704" stroke="#FFFFFF" stroke-opacity="0.62" stroke-width="16" stroke-linecap="round"/>
    <path d="M510 324V704" stroke="#F6FEFF" stroke-opacity="0.3" stroke-width="18" stroke-linecap="round"/>
    <circle cx="304" cy="286" r="14" fill="#FFFFFF" fill-opacity="0.72"/>
    <circle cx="720" cy="286" r="14" fill="#F2F8FF" fill-opacity="0.7"/>
    <circle cx="510" cy="734" r="14" fill="#E7EEFF" fill-opacity="0.7"/>
  </g>
</svg>
